<?xml version="1.0" encoding="utf-8"?>
<!-- Generator: Adobe Illustrator 26.4.1, SVG Export Plug-In . SVG Version: 6.00 Build 0)  -->
<svg version="1.1" xmlns="http://www.w3.org/2000/svg" xmlns:xlink="http://www.w3.org/1999/xlink" x="0px" y="0px"
	 viewBox="0 0 33.6 33.6" style="enable-background:new 0 0 33.6 33.6;" xml:space="preserve">
<style type="text/css">
	.st0{display:none;}
	.st1{display:inline;fill:#FFFFFF;stroke:#000000;stroke-miterlimit:10;}
	.st2{fill:#1370BC;stroke:#000000;stroke-miterlimit:10;}
	.st3{fill:none;stroke:#000000;stroke-miterlimit:10;}
	.st4{fill:#FFFFFF;stroke:#000000;stroke-miterlimit:10;}
	.st5{fill-rule:evenodd;clip-rule:evenodd;}
</style>
<g id="Layer_1">
	<g id="Layer_1_00000011736125623017896430000001320736887722518187_" class="st0">
	</g>
	<g id="Layer_3" class="st0">
		<rect x="0.5" y="0.5" class="st1" width="32.6" height="32.6"/>
		<path class="st1" d="M30.3,23.8"/>
		<path class="st1" d="M29.2,23.8"/>
	</g>
	<g id="Layer_2_00000086676689160856649150000014597031216183297980_">
		<rect x="7" y="5.8" class="st2" width="19.5" height="18"/>
		<path class="st3" d="M-1.5,26.4"/>
		<path class="st4" d="M-4,24.9"/>
		<path class="st4" d="M14.3,12"/>
		<path class="st2" d="M4.1,23.8H3.2c-0.7,0-1.3-0.6-1.3-1.3V3.7C2,3,2.6,2.5,3.2,2.5H4c0.7,0,1.3,0.6,1.3,1.3v18.9
			C5.3,23.3,4.7,23.8,4.1,23.8z"/>
		<polyline class="st2" points="5.3,21.6 5.3,22.6 5.3,23.8 4.1,23.8 3.6,23.8 		"/>
		<path class="st2" d="M26.5,25.8l0.1,4.1c0,0.7-0.6,1.3-1.3,1.3h-17c-0.7,0-1.3-0.6-1.3-1.3v-4.1H26.5z"/>
		<path class="st2" d="M30.3,23.8h-2.1V3.7c0-0.7,0.6-1.3,1.3-1.3h0.8c0.7,0,1.3,0.6,1.3,1.3v18.9C31.5,23.3,30.9,23.8,30.3,23.8z"
			/>
	</g>
</g>
<g id="Layer_2">
	<path class="st5" d="M14.5,9.7c0.7-0.1,1.3-0.7,1.3-1.4c0-0.8-0.6-1.4-1.4-1.4c-0.8,0-1.4,0.6-1.4,1.4C13,8.5,13,8.8,13.1,9
		l0.5,7.1l5.2,0l2.1,5l2.8-1.1l-0.4-1l-1.6,0.6l-2.1-4.7l-4.8,0l-0.1-0.9l3.5,0v-1.3l-3.6,0L14.5,9.7z"/>
	<path class="st5" d="M19.7,19.8c-0.9,1.7-2.7,2.9-4.7,2.9c-2.9,0-5.2-2.3-5.2-5.2c0-2,1.2-3.9,3-4.7l0.1,1.5
		c-1.1,0.7-1.7,1.9-1.7,3.2c0,2.1,1.7,3.8,3.8,3.8c1.9,0,3.5-1.5,3.7-3.3L19.7,19.8z"/>
</g>
</svg>
