<?xml version="1.0" encoding="utf-8"?>
<!-- Generator: Adobe Illustrator 26.4.1, SVG Export Plug-In . SVG Version: 6.00 Build 0)  -->
<svg version="1.1" id="Layer_2_00000027578241589369230120000017042263897603480706_"
	 xmlns="http://www.w3.org/2000/svg" xmlns:xlink="http://www.w3.org/1999/xlink" x="0px" y="0px" viewBox="0 0 32 32"
	 style="enable-background:new 0 0 32 32;" xml:space="preserve">
<style type="text/css">
	.st0{fill:#7C162E;stroke:#000000;stroke-miterlimit:10;}
	.st1{fill:none;stroke:#000000;stroke-miterlimit:10;}
	.st2{fill:#FFFFFF;stroke:#000000;stroke-miterlimit:10;}
	.st3{fill:#CC3333;stroke:#000000;stroke-miterlimit:10;}
</style>
<rect x="-27" y="5.2" class="st0" width="53.2" height="18"/>
<path class="st1" d="M-35.5,25.8"/>
<path class="st2" d="M-38,24.2"/>
<path class="st2" d="M-19.7,11.4"/>
<path class="st0" d="M-30,23.2h-0.8c-0.7,0-1.3-0.6-1.3-1.3V3.1c0-0.7,0.6-1.3,1.3-1.3h0.8c0.7,0,1.3,0.6,1.3,1.3V22
	C-28.7,22.6-29.3,23.2-30,23.2z"/>
<polyline class="st3" points="-28.7,21 -28.7,22 -28.7,23.2 -30,23.2 -30.5,23.2 "/>
<path class="st0" d="M26.2,25.3c0,0.9,0,3.1,0,4v0.1c-0.2,0.7-2,1-3.4,1h-46.3c-1.2,0-3.1-0.2-3.4-1c0-0.1,0-0.2,0-0.3
	c0-0.8,0-2.2,0-3.9C-9.3,25.3,8.4,25.3,26.2,25.3z"/>
<path class="st1" d="M-1.9,25.8"/>
<path class="st2" d="M-4.4,24.2"/>
<path class="st2" d="M13.9,11.4"/>
<path class="st0" d="M29.2,23.2H30c0.7,0,1.3-0.6,1.3-1.3V3.1c0-0.7-0.6-1.3-1.3-1.3h-0.8c-0.7,0-1.3,0.6-1.3,1.3V22
	C27.9,22.6,28.5,23.2,29.2,23.2z"/>
<polyline class="st3" points="27.9,21 27.9,22 27.9,23.2 29.2,23.2 29.6,23.2 "/>
</svg>
