<?xml version="1.0" encoding="utf-8"?>
<!-- Generator: Adobe Illustrator 26.4.1, SVG Export Plug-In . SVG Version: 6.00 Build 0)  -->
<svg version="1.1" id="Layer_2_00000037652834797219091100000012123058892560092583_"
	 xmlns="http://www.w3.org/2000/svg" xmlns:xlink="http://www.w3.org/1999/xlink" x="0px" y="0px" viewBox="0 0 32 32"
	 style="enable-background:new 0 0 32 32;" xml:space="preserve">
<style type="text/css">
	.st0{fill:#7C162E;stroke:#000000;stroke-miterlimit:10;}
	.st1{fill:none;stroke:#000000;stroke-miterlimit:10;}
	.st2{fill:#FFFFFF;stroke:#000000;stroke-miterlimit:10;}
	.st3{fill:#CC3333;stroke:#000000;stroke-miterlimit:10;}
</style>
<rect x="5.9" y="5.2" class="st0" width="53.2" height="18"/>
<path class="st1" d="M-2.6,25.8"/>
<path class="st2" d="M-5.1,24.2"/>
<path class="st2" d="M13.2,11.4"/>
<path class="st0" d="M2.9,23.2H2.1c-0.7,0-1.3-0.6-1.3-1.3V3.1c0-0.7,0.6-1.3,1.3-1.3h0.8c0.7,0,1.3,0.6,1.3,1.3V22
	C4.2,22.6,3.6,23.2,2.9,23.2z"/>
<polyline class="st3" points="4.2,21 4.2,22 4.2,23.2 2.9,23.2 2.5,23.2 "/>
<path class="st0" d="M59.1,25.3c0,0.9,0,3.1,0,4v0.1c-0.2,0.7-2,1-3.4,1H9.4c-1.2,0-3.1-0.2-3.4-1c0-0.1,0-0.2,0-0.3
	c0-0.8,0-2.2,0-3.9C23.7,25.3,41.4,25.3,59.1,25.3z"/>
<path class="st1" d="M31.1,25.8"/>
<path class="st2" d="M28.6,24.2"/>
<path class="st2" d="M46.8,11.4"/>
<path class="st0" d="M62.1,23.2h0.8c0.7,0,1.3-0.6,1.3-1.3V3.1c0-0.7-0.6-1.3-1.3-1.3h-0.8c-0.7,0-1.3,0.6-1.3,1.3V22
	C60.8,22.6,61.4,23.2,62.1,23.2z"/>
<polyline class="st3" points="60.8,21 60.8,22 60.8,23.2 62.1,23.2 62.6,23.2 "/>
</svg>
